<svg version="1.1" id="Layer_1" xmlns="http://www.w3.org/2000/svg" xmlns:xlink="http://www.w3.org/1999/xlink" x="0px" y="0px"
	  viewBox="0 560.5 612 231.5" enable-background="new 0 560.5 612 231.5" xml:space="preserve">
<g id="ornament-fill">
	<g>
		<path fill="#EF8080" d="M306.122,751.654c3.985,0,7.391,3.406,7.391,7.463c0,4.058-3.405,7.463-7.391,7.463
			c-3.985,0-7.391-3.406-7.391-7.463C298.731,755.06,302.138,751.654,306.122,751.654z M306.122,751.654
			c3.985,0,7.391,3.406,7.391,7.463c0,4.058-3.405,7.463-7.391,7.463c-3.985,0-7.391-3.406-7.391-7.463
			C298.731,755.06,302.138,751.654,306.122,751.654z M306.122,754.48c2.608,0,4.71,2.101,4.71,4.637c0,2.536-2.101,4.637-4.71,4.637
			c-2.608,0-4.71-2.101-4.71-4.637C301.412,756.581,303.514,754.48,306.122,754.48z M306.122,754.48c2.608,0,4.71,2.101,4.71,4.637
			c0,2.536-2.101,4.637-4.71,4.637c-2.608,0-4.71-2.101-4.71-4.637C301.412,756.581,303.514,754.48,306.122,754.48z
			 M306.122,756.655c1.304,0,2.391,1.087,2.391,2.462c0,1.378-1.087,2.464-2.391,2.464c-1.304,0-2.391-1.087-2.391-2.464
			C303.731,757.741,304.819,756.655,306.122,756.655z M306.122,756.655c1.304,0,2.391,1.087,2.391,2.462
			c0,1.378-1.087,2.464-2.391,2.464c-1.304,0-2.391-1.087-2.391-2.464C303.731,757.741,304.819,756.655,306.122,756.655z"/>
	</g>
</g>
<g id="fills">
	<g>
		<path fill="#AED8E6" d="M37.511,578.305h6.591v48.871h-6.591V578.305z"/>
		<path fill="#AED8E6" d="M62.335,611.611c0-5.82,2.665-10.798,6.802-13.743v27.346C64.93,622.268,62.335,617.22,62.335,611.611z
			 M84.843,596.886c3.997,2.384,6.661,6.802,7.363,11.989h-7.363V596.886z"/>
		<path fill="#AED8E6" d="M105.458,595.834h6.241v31.342h-6.241C105.458,627.176,105.458,595.834,105.458,595.834z M130.069,595.904
			c4.067,1.753,6.241,6.24,6.241,11.71v19.983c-3.857-0.421-6.241-3.786-6.241-8.064V595.904z"/>
		<path fill="#AED8E6" d="M149.984,611.26c0-7.292,2.945-12.341,7.082-14.655v30.01C152.438,624.021,149.984,617.991,149.984,611.26
			z M175.997,578.305h6.24v49.292c-3.857-0.421-6.24-3.786-6.24-8.064V578.305z"/>
		<path fill="#AED8E6" d="M196.402,611.611c0-5.82,2.665-10.798,6.802-13.743v27.346
			C198.998,622.268,196.402,617.22,196.402,611.611z M218.911,596.886c3.997,2.384,6.661,6.802,7.363,11.989h-7.363V596.886z"/>
		<path fill="#AED8E6" d="M239.526,595.834h6.241v31.342h-6.241V595.834z M254.811,595.904c0.982-0.561,2.033-0.912,3.155-0.912
			c2.174,0,3.366,1.262,3.366,2.875c0,1.543-1.122,2.805-2.735,2.805C255.792,600.672,255.022,597.236,254.811,595.904z"/>
		<path fill="#AED8E6" d="M315.323,578.305h6.592v48.871h-6.592V578.305z M341.478,579.357c5.047,1.823,7.922,5.82,7.922,10.308
			c0,4.698-3.435,8.204-7.922,9.886V579.357z M341.478,602.495c5.329,2.314,8.624,6.591,8.624,11.71
			c0,5.189-3.014,9.886-8.624,11.92V602.495z"/>
		<path fill="#AED8E6" d="M364.268,615.186v-19.352h6.241v31.272C366.37,625.283,364.268,620.725,364.268,615.186z M388.878,595.834
			h6.241v31.763c-3.857-0.421-6.241-3.786-6.241-8.064V595.834z"/>
		<path fill="#AED8E6" d="M413.492,588.822l6.241-4.488v43.191c-3.857-0.701-6.241-3.857-6.241-7.994V588.822z"/>
		<path fill="#AED8E6" d="M440.627,588.822l6.241-4.488v43.191c-3.857-0.701-6.241-3.857-6.241-7.994V588.822z"/>
		<path fill="#AED8E6" d="M463.487,611.541c0-5.259,2.594-10.027,6.732-13.112v26.154
			C466.151,621.567,463.487,616.799,463.487,611.541z M491.043,598.498c3.997,3.085,6.66,7.853,6.66,13.042
			c0,5.188-2.663,9.957-6.66,12.971V598.498z"/>
		<path fill="#AED8E6" d="M510.887,595.834h6.241v31.342h-6.241V595.834z M535.498,595.904c4.066,1.753,6.241,6.24,6.241,11.71
			v19.983c-3.857-0.421-6.241-3.786-6.241-8.064V595.904z"/>
		<path fill="#AED8E6" d="M556.393,604.038c0-1.613,0.351-2.945,0.982-4.137c0.491,0.701,1.122,1.473,2.034,2.033l15.075,9.677
			c4.277,2.735,6.03,4.137,6.03,7.432c0,1.402-0.352,2.665-0.912,3.786c-0.491-0.561-1.052-1.192-1.823-1.683l-14.655-9.325
			C557.935,608.526,556.393,607.263,556.393,604.038z"/>
	</g>
	<g>
		<path fill="#AED8E6" d="M125.222,653.114h6.591v48.871h-6.591V653.114z"/>
		<path fill="#AED8E6" d="M151.308,653.114h6.241v48.871h-6.241V653.114z"/>
		<path fill="#AED8E6" d="M175.078,653.114h6.241v48.871h-6.241V653.114z"/>
		<path fill="#AED8E6" d="M197.656,689.994v-19.352h6.24v31.272C199.76,700.092,197.656,695.534,197.656,689.994z M222.267,670.642
			h6.24v31.763c-3.857-0.421-6.24-3.786-6.24-8.064V670.642z"/>
		<path fill="#AED8E6" d="M244.144,678.846c0-1.613,0.351-2.945,0.982-4.137c0.491,0.701,1.122,1.473,2.033,2.034l15.075,9.677
			c4.277,2.735,6.03,4.137,6.03,7.432c0,1.402-0.351,2.665-0.912,3.786c-0.491-0.561-1.052-1.192-1.823-1.683l-14.655-9.325
			C245.688,683.333,244.144,682.071,244.144,678.846z M281.307,663.63l6.241-4.418v43.121c-3.857-0.701-6.241-3.857-6.241-7.994
			V663.63z"/>
		<path fill="#AED8E6" d="M309.214,670.642h6.241v31.342h-6.241V670.642z M324.499,670.713c0.982-0.561,2.033-0.911,3.155-0.911
			c2.174,0,3.366,1.262,3.366,2.875c0,1.543-1.122,2.805-2.735,2.805C325.481,675.481,324.711,672.045,324.499,670.713z"/>
		<path fill="#AED8E6" d="M343.854,687.961v14.724c-4.628-0.491-6.872-3.646-6.872-7.432
			C336.982,691.116,339.717,688.522,343.854,687.961z M339.646,676.112c0-1.332,1.051-2.665,2.665-3.716
			c0.841,0.701,2.523,2.244,2.523,3.927c0,1.473-1.262,2.454-2.594,2.454C340.838,678.776,339.646,677.654,339.646,676.112z
			 M357.806,670.993c3.997,1.893,6.311,5.96,6.311,11.78v19.703c-3.646-0.351-6.311-3.716-6.311-8.134V670.993z"/>
		<path fill="#AED8E6" d="M381.365,663.63l6.241-4.488v43.192c-3.857-0.701-6.241-3.857-6.241-7.994V663.63z"/>
		<path fill="#AED8E6" d="M404.296,686.419c0-5.82,2.665-10.798,6.8-13.743v27.346C406.889,697.076,404.296,692.028,404.296,686.419
			z M426.803,671.694c3.996,2.384,6.66,6.802,7.363,11.989h-7.363V671.694z"/>
		<path fill="#AED8E6" d="M442.58,686.068c0-7.292,2.945-12.341,7.082-14.655v30.01C445.034,698.829,442.58,692.799,442.58,686.068z
			 M468.593,653.114h6.241v48.801c-3.857-0.421-6.241-3.646-6.241-7.573V653.114z"/>
	</g>
</g>
<g id="outlines">
	<g>
		<path fill="#6D6E71" d="M29.307,627.484h5.96v-48.871H21.454c-7.994,0-14.444,4.277-14.444,12.411
			c0,6.872,5.61,12.411,12.341,12.411v2.104c-7.994,0-14.584-6.521-14.584-14.514c0-9.536,7.432-14.514,16.687-14.514h41.159
			c2.875,0,5.259-1.543,5.259-4.488c0-2.524-2.033-4.488-4.488-4.488v-2.104c3.716,0,6.731,2.945,6.731,6.591
			c0,4.347-3.366,6.591-7.502,6.591h-16.27v48.871h5.96v2.104H29.307V627.484z M44.102,627.484v-48.871h-6.591v48.871H44.102z"/>
		<path fill="#6D6E71" d="M78.181,628.325c10.097,0,13.322-9.185,13.322-9.185l2.104,0.701c0,0-3.786,10.588-15.426,10.588
			c-10.518,0-18.09-8.484-18.09-18.512c0-10.447,7.924-18.721,17.81-18.721c9.466,0,16.056,7.994,16.757,18.09H71.38v15.565
			C73.414,627.834,75.658,628.325,78.181,628.325z M69.136,598.175c-4.137,2.945-6.802,7.924-6.802,13.742
			c0,5.61,2.594,10.658,6.802,13.603V598.175z M82.599,609.184v-13.041c-1.473-0.561-3.015-0.841-4.698-0.841
			c-2.384,0-4.558,0.561-6.521,1.543v12.341h11.219V609.184z M92.205,609.184c-0.701-5.188-3.366-9.606-7.363-11.989v11.989H92.205z
			"/>
		<path fill="#6D6E71" d="M97.604,627.484h5.61v-31.341h-5.61v-2.104h16.337v6.802c0.561-1.893,1.613-3.506,3.296-4.838
			c2.033-1.613,5.049-2.805,8.555-2.805c8.134,0,12.761,6.241,12.761,14.725v19.843c2.805-0.771,4.979-3.857,4.979-7.713h2.244
			c0,5.539-3.857,10.027-8.553,10.027c-5.75,0-9.396-4.488-9.396-10.237v-24.33c-0.701-0.07-1.402-0.21-2.104-0.21
			c-6.872,0-11.569,5.329-11.78,12.13v20.054h5.61v2.104H97.604V627.484z M111.699,627.484v-31.341h-6.241v31.342h6.241V627.484z
			 M136.309,627.904v-19.983c0-5.469-2.174-9.957-6.241-11.71v23.629C130.069,624.119,132.453,627.484,136.309,627.904z"/>
		<path fill="#6D6E71" d="M147.74,611.498c0-11.78,7.222-18.3,15.004-18.3c2.875,0,5.82,0.912,7.853,2.384
			c1.543,1.122,2.524,2.524,3.155,4.277v-21.246h-5.61v-2.104h16.337v51.255c2.805-0.771,4.979-3.857,4.979-7.713h2.244
			c0,5.539-3.857,10.027-8.555,10.027c-4.768,0-8.064-3.085-9.045-7.433c-0.701,2.104-1.893,3.997-3.786,5.399
			c-2.174,1.613-4.979,2.384-7.783,2.384C153.069,630.429,147.74,621.664,147.74,611.498z M157.066,596.913
			c-4.137,2.314-7.082,7.363-7.082,14.655c0,6.732,2.454,12.761,7.082,15.356V596.913z M162.535,628.325
			c6.871,0,11.219-5.61,11.219-12.831v-9.536c-0.21-5.96-4.768-10.658-10.869-10.658c-1.262,0-2.454,0.21-3.576,0.561v32.044
			C160.292,628.186,161.343,628.325,162.535,628.325z M182.238,627.904v-49.292h-6.24v41.228
			C175.997,624.119,178.381,627.484,182.238,627.904z"/>
		<path fill="#6D6E71" d="M212.249,628.325c10.097,0,13.322-9.185,13.322-9.185l2.104,0.701c0,0-3.786,10.588-15.426,10.588
			c-10.518,0-18.09-8.484-18.09-18.512c0-10.447,7.924-18.721,17.81-18.721c9.466,0,16.056,7.994,16.757,18.09h-23.279v15.565
			C207.481,627.834,209.725,628.325,212.249,628.325z M203.204,598.175c-4.137,2.945-6.802,7.924-6.802,13.742
			c0,5.61,2.594,10.658,6.802,13.603V598.175z M216.667,609.184v-13.041c-1.473-0.561-3.015-0.841-4.698-0.841
			c-2.384,0-4.558,0.561-6.521,1.543v12.341h11.219V609.184z M226.272,609.184c-0.701-5.188-3.366-9.606-7.363-11.989v11.989
			H226.272z"/>
		<path fill="#6D6E71" d="M231.672,627.484h5.61v-31.341h-5.61v-2.104h16.337v7.924c0.491-1.683,1.262-3.296,2.454-4.768
			c2.033-2.524,4.768-3.997,7.572-3.997c3.436,0,5.539,2.244,5.539,4.978c0,2.665-2.033,4.908-5.119,4.908
			c-3.857,0-5.049-3.436-5.469-5.539c-3.015,2.875-4.979,7.994-4.979,12.13v17.81h5.61v2.104h-21.946v-2.105H231.672z
			 M245.766,627.484v-31.341h-6.241v31.342h6.241V627.484z M261.332,598.175c0-1.613-1.192-2.875-3.366-2.875
			c-1.122,0-2.174,0.351-3.155,0.912c0.21,1.332,0.982,4.768,3.786,4.768C260.21,600.98,261.332,599.717,261.332,598.175z"/>
		<path fill="#6D6E71" d="M308.872,627.484h4.207v-48.871h-7.432c-10.658,0-19.422,5.75-19.422,16.547
			c0,9.045,7.502,16.548,16.687,16.548v2.104c-10.447,0-18.931-8.484-18.931-18.651c0-12.2,9.746-18.651,21.666-18.651h29.379
			c10.448,0,16.618,6.171,16.618,13.463c0,5.539-3.716,9.185-8.485,11.358c5.61,2.735,9.185,7.363,9.185,13.183
			c0,7.994-6.241,15.075-17.318,15.075h-19.703v4.277c0,4.698-2.663,8.414-7.502,8.414c-4.137,0-7.433-3.296-7.433-7.361
			C300.387,630.078,304.104,627.484,308.872,627.484z M307.821,640.175c3.435,0,5.258-2.735,5.258-6.311v-4.277h-4.207
			c-3.506,0-6.241,1.893-6.241,5.329C302.631,637.861,304.946,640.175,307.821,640.175z M321.914,627.484v-48.871h-6.592v48.871
			H321.914z M339.234,600.208v-21.175c-1.333-0.28-2.735-0.421-4.208-0.421h-10.867v21.596
			C324.158,600.208,339.234,600.208,339.234,600.208z M335.026,627.484c1.474,0,2.875-0.14,4.208-0.421v-24.751h-15.075v25.172
			H335.026z M349.4,589.972c0-4.488-2.875-8.484-7.922-10.308v20.193C345.964,598.175,349.4,594.669,349.4,589.972z M350.1,614.513
			c0-5.119-3.294-9.396-8.624-11.71v23.629C347.086,624.398,350.1,619.702,350.1,614.513z"/>
		<path fill="#6D6E71" d="M362.024,596.142h-5.61v-2.104h16.337v34.077c0.701,0.14,1.401,0.21,2.173,0.21
			c6.802,0,11.5-5.469,11.71-12.411v-19.773h-5.61v-2.104h16.337v33.726c2.805-0.771,4.979-3.857,4.979-7.713h2.244
			c0,5.539-3.716,10.027-8.904,10.027c-4.418,0-7.783-3.296-8.695-7.363c-0.701,1.893-1.892,3.436-3.435,4.698
			c-2.313,1.893-5.119,3.015-8.625,3.015c-8.553,0-12.901-6.591-12.901-14.935L362.024,596.142L362.024,596.142z M370.507,596.142
			h-6.241v19.352c0,5.539,2.104,10.097,6.241,11.92V596.142z M395.118,627.904v-31.762h-6.241v23.699
			C388.878,624.119,391.262,627.484,395.118,627.904z"/>
		<path fill="#6D6E71" d="M411.248,596.142h-6.1v-2.104h6.1v-5.89l10.728-7.713v13.602h8.975v2.104h-8.975v31.833
			c3.786-0.351,6.732-3.716,6.732-7.924h2.244c0,5.539-4.276,10.027-9.606,10.027c-6.169,0-10.097-4.488-10.097-10.237V596.142z
			 M419.733,627.834v-43.191l-6.241,4.488v30.711C413.492,623.978,415.876,627.133,419.733,627.834z"/>
		<path fill="#6D6E71" d="M438.383,596.142h-6.1v-2.104h6.1v-5.89l10.728-7.713v13.602h8.975v2.104h-8.975v31.833
			c3.786-0.351,6.732-3.716,6.732-7.924h2.244c0,5.539-4.276,10.027-9.606,10.027c-6.169,0-10.097-4.488-10.097-10.237V596.142z
			 M446.868,627.834v-43.191l-6.241,4.488v30.711C440.627,623.978,443.011,627.133,446.868,627.834z"/>
		<path fill="#6D6E71" d="M480.595,593.197c10.658,0,19.353,8.555,19.353,18.651c0,10.027-8.694,18.581-19.353,18.581
			c-10.657,0-19.352-8.555-19.352-18.581C461.244,601.751,469.937,593.197,480.595,593.197z M470.219,598.736
			c-4.137,3.085-6.732,7.853-6.732,13.112c0,5.259,2.663,10.027,6.732,13.041V598.736z M480.595,628.325
			c2.946,0,5.75-0.701,8.205-2.034v-28.888c-2.455-1.332-5.259-2.104-8.205-2.104c-2.945,0-5.749,0.771-8.133,2.033v28.958
			C474.847,627.624,477.65,628.325,480.595,628.325z M497.703,611.848c0-5.189-2.663-9.957-6.66-13.042v26.013
			C495.04,621.805,497.703,617.036,497.703,611.848z"/>
		<path fill="#6D6E71" d="M503.034,627.484h5.61v-31.341h-5.61v-2.104h16.337v6.802c0.561-1.893,1.613-3.506,3.296-4.838
			c2.032-1.613,5.047-2.805,8.553-2.805c8.134,0,12.762,6.241,12.762,14.725v19.843c2.804-0.771,4.979-3.857,4.979-7.713h2.244
			c0,5.539-3.857,10.027-8.555,10.027c-5.75,0-9.395-4.488-9.395-10.237v-24.33c-0.702-0.07-1.402-0.21-2.104-0.21
			c-6.872,0-11.57,5.329-11.78,12.13v20.054h5.61v2.104h-21.946L503.034,627.484L503.034,627.484z M517.127,627.484v-31.341h-6.241
			v31.342h6.241V627.484z M541.739,627.904v-19.983c0-5.469-2.174-9.957-6.241-11.71v23.629
			C535.498,624.119,537.882,627.484,541.739,627.904z"/>
		<path fill="#6D6E71" d="M553.868,617.878h2.244v3.927c0.843,1.122,5.469,6.521,12.902,6.521c3.716,0,7.152-1.192,9.325-3.436
			c-0.351-0.421-0.841-0.982-1.823-1.613l-14.655-9.325c-5.188-3.296-7.713-5.539-7.713-9.606c0-7.643,6.451-11.149,13.884-11.149
			c3.366,0,7.291,0.912,10.306,2.454c2.033-0.982,4.698-1.613,7.994-1.613h16.407c2.735,0,4.699-1.543,4.979-4.347l2.244,0.281
			c-0.42,3.996-3.226,6.171-7.222,6.171h-16.407c-2.314,0-4.207,0.351-5.75,0.912c1.683,1.262,2.735,2.805,2.735,4.558
			c0,2.805-2.313,4.768-4.838,4.768c-2.525,0-4.838-2.104-4.838-4.768c0-1.543,0.91-3.296,2.663-4.698
			c-2.454-0.982-5.538-1.613-8.204-1.613c-3.716,0-7.222,1.052-9.395,3.155c0.351,0.631,0.982,1.402,1.963,1.963l15.075,9.677
			c4.838,3.085,7.012,4.979,7.012,9.255c0,7.152-6.381,11.079-13.743,11.079c-6.171,0-10.518-3.155-12.902-5.399v4.558h-2.244
			v-11.71H553.868z M577.779,621.455c0.77,0.491,1.332,1.122,1.823,1.682c0.56-1.122,0.912-2.384,0.912-3.786
			c0-3.296-1.753-4.698-6.03-7.433l-15.075-9.675c-0.912-0.561-1.543-1.332-2.033-2.033c-0.631,1.192-0.982,2.524-0.982,4.137
			c0,3.226,1.543,4.488,6.732,7.783L577.779,621.455z M581.074,601.611c0-1.332-1.051-2.594-2.594-3.576
			c-1.683,1.052-2.594,2.384-2.594,3.576c0,1.543,1.192,2.665,2.594,2.665S581.074,603.153,581.074,601.611z"/>
	</g>
	<g>
		<path fill="#6D6E71" d="M117.019,702.292h5.96V653.42h-6.239c-2.875,0-5.259,1.543-5.259,4.488c0,2.524,2.033,4.488,4.488,4.488
			v2.104c-3.716,0-6.732-2.945-6.732-6.591c0-4.347,3.366-6.591,7.503-6.591h19.913v2.104h-2.594v48.871h5.96v2.104h-22.998v-2.102
			H117.019z M131.814,702.292V653.42h-6.591v48.871h6.591V702.292z"/>
		<path fill="#6D6E71" d="M143.455,702.292h5.61V653.42h-5.61v-2.104h16.337v50.975h5.61v2.104h-21.946V702.292z M157.549,702.292
			V653.42h-6.241v48.871h6.241V702.292z"/>
		<path fill="#6D6E71" d="M167.225,702.292h5.61V653.42h-5.61v-2.104h16.337v50.975h5.61v2.104h-21.946V702.292z M181.318,702.292
			V653.42h-6.241v48.871h6.241V702.292z"/>
		<path fill="#6D6E71" d="M195.412,670.95h-5.61v-2.104h16.337v34.077c0.701,0.14,1.402,0.21,2.174,0.21
			c6.802,0,11.5-5.469,11.71-12.411V670.95h-5.61v-2.104h16.337v33.727c2.805-0.771,4.979-3.857,4.979-7.713h2.244
			c0,5.539-3.716,10.027-8.905,10.027c-4.418,0-7.783-3.296-8.695-7.363c-0.701,1.893-1.893,3.436-3.436,4.698
			c-2.314,1.893-5.119,3.015-8.625,3.015c-8.553,0-12.901-6.591-12.901-14.934V670.95H195.412z M203.896,670.95h-6.24v19.352
			c0,5.539,2.104,10.097,6.24,11.92V670.95z M228.508,702.713V670.95h-6.24v23.699C222.267,698.926,224.651,702.292,228.508,702.713
			z"/>
		<path fill="#6D6E71" d="M241.621,692.686h2.244v3.927c0.841,1.122,5.469,6.521,12.902,6.521c3.716,0,7.152-1.192,9.325-3.436
			c-0.351-0.421-0.841-0.982-1.823-1.613l-14.655-9.325c-5.188-3.296-7.713-5.539-7.713-9.606c0-7.643,6.451-11.149,13.884-11.149
			c1.052,0,2.174,0.07,3.296,0.28v-0.701c0-11.359,8.204-18.932,18.861-18.932c6.942,0,11.85,3.576,11.85,9.396v10.797h8.975v2.104
			h-8.975v31.833c3.786-0.351,6.732-3.716,6.732-7.924h2.244c0,5.539-4.277,10.027-9.606,10.027
			c-6.171,0-10.097-4.488-10.097-10.237V670.95h-6.1v-2.104h6.1v-5.89l8.414-5.89c-0.561-3.927-4.347-6.31-9.536-6.31
			c-9.396,0-16.617,6.732-16.617,16.828v1.122c4.908,1.192,9.325,3.927,9.325,7.502c0,2.174-1.473,3.927-3.997,3.927
			c-3.786,0-6.661-4.137-7.433-9.745c-1.122-0.14-2.313-0.281-3.435-0.281c-3.716,0-7.152,1.052-9.326,3.155
			c0.351,0.631,0.982,1.332,1.963,1.963l15.075,9.677c4.838,3.085,7.012,4.979,7.012,9.255c0,7.152-6.38,11.078-13.742,11.078
			c-6.171,0-10.518-3.155-12.902-5.399v4.558h-2.244v-11.709H241.621z M265.531,696.261c0.771,0.491,1.332,1.122,1.823,1.683
			c0.561-1.122,0.912-2.384,0.912-3.786c0-3.296-1.753-4.698-6.03-7.432l-15.075-9.677c-0.912-0.561-1.543-1.332-2.033-2.034
			c-0.631,1.192-0.982,2.524-0.982,4.137c0,3.226,1.543,4.488,6.732,7.783L265.531,696.261z M268.406,676.208
			c0-2.454-3.155-4.347-6.872-5.329c0.701,4.207,2.594,7.152,5.119,7.152C267.775,678.031,268.406,677.259,268.406,676.208z
			 M287.547,702.642V659.52l-6.241,4.418v30.711C281.307,698.786,283.691,701.94,287.547,702.642z"/>
		<path fill="#6D6E71" d="M301.361,702.292h5.61V670.95h-5.61v-2.104h16.337v7.924c0.491-1.683,1.262-3.296,2.454-4.768
			c2.033-2.524,4.768-3.997,7.572-3.997c3.436,0,5.539,2.244,5.539,4.979c0,2.665-2.033,4.908-5.119,4.908
			c-3.857,0-5.047-3.436-5.469-5.539c-3.015,2.875-4.979,7.994-4.979,12.131v17.809h5.61v2.104H301.36v-2.104H301.361z
			 M315.455,702.292V670.95h-6.241v31.342H315.455z M331.021,672.983c0-1.613-1.192-2.875-3.366-2.875
			c-1.122,0-2.174,0.351-3.155,0.912c0.212,1.332,0.982,4.768,3.786,4.768C329.899,675.787,331.021,674.525,331.021,672.983z"/>
		<path fill="#6D6E71" d="M345.607,686.094h2.665c4.137,0,7.151-1.753,7.291-4.558v-11.009c-1.122-0.28-2.313-0.421-3.576-0.421
			c-2.735,0-5.539,0.631-7.853,1.613c1.192,0.912,2.945,2.524,2.945,4.979c0,2.594-2.384,4.488-4.907,4.488
			c-2.596,0-4.768-2.033-4.768-4.627c0-4.768,7.503-8.555,14.725-8.555c8.694,0,14.234,5.399,14.234,15.075v19.492
			c2.945-0.841,4.907-3.927,4.907-7.713h2.244c0,5.539-3.646,10.027-8.835,10.027c-3.997,0-6.732-2.384-8.204-5.819
			c-0.561,1.613-1.683,3.085-3.226,4.137c-1.893,1.262-4.207,2.034-7.433,2.034c-7.432,0-11.078-4.137-11.078-9.675
			C334.738,689.39,339.506,686.094,345.607,686.094z M343.854,702.992v-14.724c-4.137,0.561-6.872,3.155-6.872,7.292
			C336.982,699.347,339.226,702.501,343.854,702.992z M344.835,676.63c0-1.683-1.682-3.226-2.523-3.927
			c-1.614,1.052-2.665,2.384-2.665,3.716c0,1.543,1.192,2.665,2.594,2.665C343.573,679.083,344.835,678.101,344.835,676.63z
			 M355.562,694.158v-8.484c-0.701,0.841-1.682,1.473-3.015,1.893c-1.261,0.421-2.735,0.631-4.276,0.631h-2.174v14.934
			C352.478,703.062,355.562,698.997,355.562,694.158z M364.118,702.783v-19.703c0-5.82-2.314-9.886-6.311-11.78v23.349
			C357.806,699.067,360.472,702.432,364.118,702.783z"/>
		<path fill="#6D6E71" d="M379.122,670.95h-6.1v-2.104h6.1v-5.89l10.728-7.713v13.602h8.975v2.104h-8.975v31.833
			c3.786-0.351,6.732-3.716,6.732-7.924h2.244c0,5.539-4.277,10.027-9.606,10.027c-6.169,0-10.097-4.488-10.097-10.237V670.95z
			 M387.606,702.642V659.45l-6.241,4.488v30.711C381.365,698.786,383.749,701.94,387.606,702.642z"/>
		<path fill="#6D6E71" d="M420.142,703.132c10.097,0,13.322-9.185,13.322-9.185l2.104,0.701c0,0-3.785,10.588-15.425,10.588
			c-10.518,0-18.09-8.483-18.09-18.51c0-10.448,7.922-18.722,17.809-18.722c9.466,0,16.056,7.994,16.759,18.09h-23.28v15.565
			C415.373,702.642,417.617,703.132,420.142,703.132z M411.096,672.983c-4.136,2.945-6.8,7.924-6.8,13.743
			c0,5.61,2.594,10.657,6.8,13.602V672.983z M424.559,683.991V670.95c-1.474-0.561-3.015-0.841-4.699-0.841
			c-2.384,0-4.557,0.561-6.521,1.543v12.341h11.22V683.991z M434.166,683.991c-0.702-5.188-3.367-9.605-7.363-11.989v11.989H434.166
			z"/>
		<path fill="#6D6E71" d="M440.336,686.305c0-11.78,7.222-18.3,15.006-18.3c2.875,0,5.819,0.912,7.853,2.384
			c1.541,1.122,2.523,2.524,3.154,4.277V653.42h-5.61v-2.104h16.337v50.975h14.234c7.363,0,13.322-3.927,13.322-11.43
			c0-1.683-0.351-3.296-0.982-4.978l2.104-0.701c0.771,1.963,1.122,3.857,1.122,5.68c0,8.905-6.941,13.533-15.565,13.533h-15.565
			c-4.768,0-8.063-2.945-9.044-6.942c-0.702,2.104-1.893,3.997-3.786,5.399c-2.174,1.613-4.979,2.384-7.783,2.384
			C445.665,705.236,440.336,696.472,440.336,686.305z M449.662,671.72c-4.137,2.314-7.082,7.363-7.082,14.655
			c0,6.732,2.454,12.761,7.082,15.356V671.72z M455.131,703.132c6.872,0,11.219-5.61,11.219-12.831v-9.536
			c-0.21-5.96-4.767-10.658-10.867-10.658c-1.262,0-2.455,0.21-3.577,0.561v32.044C452.888,702.992,453.939,703.132,455.131,703.132
			z M474.834,702.222V653.42h-6.241v41.228C468.593,698.575,470.977,701.801,474.834,702.222z"/>
	</g>
	<g>
		<path fill="#6D6E71" d="M281.51,759.74c0-5.96,4.838-10.867,10.869-10.867v2.104c-4.768,0-8.625,3.927-8.625,8.765
			c0,4.838,3.857,8.835,8.625,8.835v2.104C286.347,770.679,281.51,765.7,281.51,759.74z M284.104,739.126l1.543-1.543l12.48,12.481
			l-1.543,1.543L284.104,739.126z M296.585,767.874l1.543,1.543l-12.48,12.481l-1.543-1.543L296.585,767.874z M306.261,735.059
			c6.03,0,10.938,4.838,10.938,10.869h-2.244c0-4.908-3.927-8.765-8.694-8.765c-4.768,0-8.765,3.857-8.765,8.765h-2.244
			C295.252,739.897,300.231,735.059,306.261,735.059z M297.496,773.624c0,4.838,3.997,8.694,8.765,8.694s8.694-3.857,8.694-8.694
			h2.244c0,5.96-4.908,10.797-10.938,10.797s-11.009-4.838-11.009-10.797H297.496z M306.261,750.414
			c5.119,0,9.396,4.277,9.396,9.325c0,5.049-4.277,9.326-9.396,9.326s-9.396-4.277-9.396-9.326
			C296.865,754.693,301.142,750.414,306.261,750.414z M306.261,766.963c3.857,0,7.152-3.296,7.152-7.222
			c0-3.926-3.296-7.222-7.152-7.222s-7.152,3.296-7.152,7.222S302.404,766.963,306.261,766.963z M306.261,755.253
			c2.524,0,4.558,2.034,4.558,4.488c0,2.454-2.033,4.488-4.558,4.488c-2.524,0-4.558-2.033-4.558-4.488
			C301.703,757.286,303.737,755.253,306.261,755.253z M306.261,762.124c1.262,0,2.314-1.052,2.314-2.384s-1.052-2.384-2.314-2.384
			s-2.314,1.052-2.314,2.384S304.999,762.124,306.261,762.124z M326.875,737.583l1.543,1.543l-12.48,12.481l-1.543-1.543
			L326.875,737.583z M315.938,767.874l12.48,12.481l-1.543,1.543l-12.48-12.481L315.938,767.874z M320.073,768.575
			c4.838,0,8.694-3.997,8.694-8.835s-3.857-8.765-8.694-8.765v-2.104c6.1,0,10.938,4.908,10.938,10.867
			c0,5.96-4.838,10.939-10.938,10.939V768.575z"/>
	</g>
	<g>
		<path fill="#6D6E71" d="M190.006,764.224c0-4.207,3.646-7.992,8.835-7.992c5.749,0,12.55,4.838,19.632,9.816
			c7.292,5.119,14.865,10.447,21.176,10.447c5.259,0,7.992-3.296,7.992-6.38c0-2.104-1.613-3.716-3.646-3.716
			s-3.646,1.613-3.646,3.716h-2.244c0-3.226,2.594-5.82,5.89-5.82s5.89,2.594,5.89,5.82c0,4.067-3.926,8.484-10.236,8.484
			c-6.942,0-14.936-5.61-22.437-10.869c-6.732-4.698-13.392-9.396-18.37-9.396c-3.927,0-6.591,2.805-6.591,5.89
			c0,2.805,2.244,5.049,4.979,5.049s4.979-2.244,4.979-5.049h2.244c0,3.927-3.226,7.152-7.222,7.152
			C193.231,771.375,190.006,768.151,190.006,764.224z M201.225,740.735c-1.683,0-3.015,1.332-3.015,3.085s1.332,3.085,3.015,3.085
			v2.104c-2.945,0-5.259-2.314-5.259-5.188c0-2.875,2.313-5.189,5.259-5.189c7.012,0,9.326,9.325,9.326,15.425h-2.244
			C208.307,748.799,206.554,740.735,201.225,740.735z M216.58,770.395c1.052,0,2.244,0.07,3.296,0.21l-0.28,2.104
			c-1.052-0.14-2.104-0.21-3.015-0.21c-5.329,0-10.237,2.104-10.237,5.75c0,2.104,1.683,3.786,3.716,3.786
			c2.033,0,3.716-1.683,3.716-3.786h2.244c0,3.225-2.665,5.89-5.96,5.89s-5.96-2.665-5.96-5.89
			C204.099,773.199,210.129,770.395,216.58,770.395z M216.089,756.161c0-4.558,2.174-9.186,7.222-9.186
			c3.366,0,6.03,2.665,6.03,5.96s-2.665,5.96-6.03,5.96v-2.104c2.104,0,3.786-1.682,3.786-3.857c0-2.174-1.683-3.857-3.786-3.857
			c-3.506,0-4.979,3.576-4.979,7.082c0,1.893,0.701,4.277,1.683,6.521l-2.104,0.841C216.79,761.139,216.089,758.474,216.089,756.161
			z"/>
	</g>
	<g>
		<path fill="#6D6E71" d="M364.616,767.852c0-3.226,2.594-5.82,5.89-5.82c3.294,0,5.89,2.594,5.89,5.82h-2.244
			c0-2.104-1.614-3.716-3.646-3.716c-2.033,0-3.646,1.613-3.646,3.716c0,3.085,2.735,6.38,7.994,6.38
			c6.31,0,13.884-5.329,21.175-10.447c7.082-4.978,13.884-9.817,19.634-9.817c5.188,0,8.835,3.786,8.835,7.994
			c0,3.927-3.226,7.152-7.222,7.152c-3.997,0-7.222-3.225-7.222-7.152h2.244c0,2.805,2.244,5.049,4.979,5.049
			c2.735,0,4.979-2.244,4.979-5.049c0-3.085-2.665-5.89-6.591-5.89c-4.98,0-11.64,4.698-18.371,9.396
			c-7.503,5.259-15.496,10.869-22.437,10.869C368.191,776.336,364.616,771.919,364.616,767.852z M396.169,753.899
			c0-3.506-1.473-7.082-4.979-7.082c-2.104,0-3.786,1.683-3.786,3.857s1.683,3.857,3.786,3.857v2.104c-3.366,0-6.03-2.665-6.03-5.96
			s2.665-5.96,6.03-5.96c5.047,0,7.222,4.628,7.222,9.186c0,2.313-0.701,4.978-1.823,7.363l-2.105-0.841
			C395.467,758.175,396.169,755.791,396.169,753.899z M394.625,768.343c1.052-0.14,2.244-0.21,3.296-0.21
			c6.451,0,12.481,2.805,12.481,7.853c0,3.226-2.665,5.89-5.96,5.89c-3.296,0-5.961-2.665-5.961-5.89h2.244
			c0,2.104,1.683,3.786,3.717,3.786c2.032,0,3.716-1.682,3.716-3.786c0-3.646-4.908-5.749-10.237-5.749
			c-0.841,0-1.893,0.07-3.015,0.21L394.625,768.343z M413.277,736.369c2.945,0,5.259,2.314,5.259,5.189
			c0,2.875-2.314,5.188-5.259,5.188v-2.104c1.682,0,3.015-1.332,3.015-3.085s-1.333-3.085-3.015-3.085
			c-5.33,0-7.083,8.064-7.083,13.322h-2.244C403.951,745.695,406.265,736.369,413.277,736.369z"/>
	</g>
</g>
</svg>
